<?xml version="1.0" encoding="UTF-8"?>
<svg width="16px" height="16px" viewBox="0 0 16 16" version="1.1" xmlns="http://www.w3.org/2000/svg" xmlns:xlink="http://www.w3.org/1999/xlink">
    <!-- Generator: Sketch 47.1 (45422) - http://www.bohemiancoding.com/sketch -->
    <title>nav_trash_normal</title>
    <desc>Created with Sketch.</desc>
    <defs></defs>
    <g id="Page-1" stroke="none" stroke-width="1" fill="none" fill-rule="evenodd">
        <g id="nav_trash_normal" fill-rule="nonzero" fill="#303030">
            <g id="user-trash-symbolic" transform="translate(1.000000, 1.000000)">
                <path d="M12,3 L12,13.5 C12,13.7761424 11.7761424,14 11.5,14 L2.5,14 C2.22385763,14 2,13.7761424 2,13.5 L2,3 L0.54166667,3 C0.26552429,3 0.04166667,2.77614237 0.04166667,2.5 C0.04166667,2.22385763 0.26552429,2 0.54166667,2 L13.4583333,2 C13.7344757,2 13.9583333,2.22385763 13.9583333,2.5 C13.9583333,2.77614237 13.7344757,3 13.4583333,3 L12,3 Z M11,3 L3,3 L3,13 L11,13 L11,3 Z M4.5,1 C4.22385763,1 4,0.77614237 4,0.5 C4,0.22385763 4.22385763,0 4.5,0 L9.5,0 C9.7761424,0 10,0.22385763 10,0.5 C10,0.77614237 9.7761424,1 9.5,1 L4.5,1 Z M6,11.4259905 C6,11.7021329 5.77614237,11.9259905 5.5,11.9259905 C5.22385763,11.9259905 5,11.7021329 5,11.4259905 L5,4.53787667 C5,4.2617343 5.22385763,4.03787667 5.5,4.03787667 C5.77614237,4.03787667 6,4.2617343 6,4.53787667 L6,11.4259905 Z M9,11.4259905 C9,11.7021329 8.77614237,11.9259905 8.5,11.9259905 C8.22385763,11.9259905 8,11.7021329 8,11.4259905 L8,4.53787667 C8,4.2617343 8.22385763,4.03787667 8.5,4.03787667 C8.77614237,4.03787667 9,4.2617343 9,4.53787667 L9,11.4259905 Z" id="Combined-Shape"></path>
            </g>
        </g>
    </g>
</svg>