<?xml version="1.0" encoding="UTF-8"?>
<svg width="16px" height="16px" viewBox="0 0 16 16" version="1.1" xmlns="http://www.w3.org/2000/svg" xmlns:xlink="http://www.w3.org/1999/xlink">
    <!-- Generator: Sketch 47.1 (45422) - http://www.bohemiancoding.com/sketch -->
    <title>nav_alltask_active</title>
    <desc>Created with Sketch.</desc>
    <defs></defs>
    <g id="Page-1" stroke="none" stroke-width="1" fill="none" fill-rule="evenodd">
        <g id="nav_alltask_active" fill-rule="nonzero" fill="#2CA7F8">
            <path d="M5,8 L5,7 L14,7 L14,8 L5,8 Z M5,3 L5,2 L14,2 L14,3 L5,3 Z M5,13 L5,12 L14,12 L14,13 L5,13 Z M2,8 L2,7 L4,7 L4,8 L2,8 Z M2,3 L2,2 L4,2 L4,3 L2,3 Z M2,13 L2,12 L4,12 L4,13 L2,13 Z" id="Combined-Shape"></path>
        </g>
    </g>
</svg>